<svg width="105" height="127.607" xmlns="http://www.w3.org/2000/svg" preserveAspectRatio="xMidYMid meet" version="1.1">
 <desc>Created with Raphaël 2.1.2</desc>

 <g>
  <title>Layer 1</title>
  <path id="svg_1" d="m48.31,41.757l13.81,0l0,0.7l-13.81,0l0,-0.7z" fill="#000000"/>
  <path id="svg_2" d="m48.31,34.007l13.81,0l0,0.7l-13.81,0l0,-0.7z" fill="#000000"/>
  <path id="svg_3" d="m48.31,26.257l13.81,0l0,0.7l-13.81,0l0,-0.7z" fill="#000000"/>
  <path id="svg_4" d="m15,80.507l77.73641,0l0,0.7l-77.73641,0l0,-0.7z" fill="#000000"/>
  <path id="svg_5" d="m15,72.757l77.73641,0l0,0.7l-77.73641,0l0,-0.7z" fill="#000000"/>
  <path id="svg_6" d="m15,65.007l77.73641,0l0,0.7l-77.73641,0l0,-0.7z" fill="#000000"/>
  <path id="svg_7" d="m15,57.257l77.73641,0l0,0.7l-77.73641,0l0,-0.7z" fill="#000000"/>
  <path id="svg_8" d="m15,49.507l77.73641,0l0,0.7l-77.73641,0l0,-0.7z" fill="#000000"/>
  <path id="svg_9" data-vertical="23" fill-opacity="0" d="m0,22.65l100,0l0,0.7l-100,0l0,-0.7z" fill="#000000"/>
  <path id="svg_10" d="m20.06,42.667l0.09,-0.06l1.92,0l1.92,0l0.09,0.06l0.06,0.09l0,14.85l0,14.82l-0.06,0.09l-0.09,0.06l-1.92,0l-1.92,0l-0.09,-0.06l-0.06,-0.09l0,-14.82l0,-14.85l0.06,-0.09zm5.37,0c0.09,-0.06 0.09,-0.06 0.57,-0.06c0.45,0 0.45,0 0.54,0.06l0.06,0.09l0,7.14l0,7.11l0.09,-0.06c0.18,-0.18 0.72,-0.84 0.96,-1.2c0.3,-0.45 0.66,-1.17 0.84,-1.65c0.36,-0.9 0.57,-1.83 0.6,-2.79c0.03,-0.48 0.03,-0.54 0.09,-0.63c0.12,-0.18 0.36,-0.21 0.54,-0.12c0.18,0.09 0.21,0.15 0.24,0.66c0.06,0.87 0.21,1.56 0.57,2.22c0.51,1.02 1.26,1.68 2.22,1.92c0.21,0.06 0.33,0.06 0.78,0.06c0.45,0 0.57,0 0.84,-0.06c0.45,-0.12 0.81,-0.33 1.08,-0.6c0.57,-0.57 0.87,-1.41 0.99,-2.88c0.06,-0.54 0.06,-3 0,-3.57c-0.21,-2.58 -0.84,-3.87 -2.16,-4.5c-0.48,-0.21 -1.17,-0.36 -1.77,-0.36c-0.69,0 -1.29,0.27 -1.5,0.72c-0.06,0.15 -0.06,0.21 -0.06,0.42c0,0.24 0,0.3 0.06,0.45c0.12,0.24 0.24,0.39 0.63,0.66c0.42,0.3 0.57,0.48 0.69,0.72c0.06,0.15 0.06,0.21 0.06,0.48c0,0.39 -0.03,0.63 -0.21,0.96c-0.3,0.6 -0.87,1.08 -1.5,1.26c-0.27,0.06 -0.87,0.06 -1.14,0c-0.78,-0.24 -1.44,-0.87 -1.65,-1.68c-0.12,-0.42 -0.09,-1.17 0.09,-1.71c0.51,-1.65 1.98,-2.82 3.81,-3.09c0.84,-0.09 2.46,0.03 3.51,0.27c2.22,0.57 3.69,1.8 4.44,3.75c0.36,0.93 0.57,2.13 0.57,3.36c0,1.44 -0.48,2.73 -1.38,3.81c-1.26,1.5 -3.27,2.43 -5.28,2.43c-0.48,0 -0.51,0 -0.75,-0.09c-0.15,-0.03 -0.48,-0.21 -0.78,-0.36c-0.69,-0.36 -0.87,-0.42 -1.26,-0.42c-0.27,0 -0.3,0 -0.51,0.09c-0.57,0.3 -0.81,0.9 -0.81,2.1c0,1.23 0.24,1.83 0.81,2.13c0.21,0.09 0.24,0.09 0.51,0.09c0.39,0 0.57,-0.06 1.26,-0.42c0.3,-0.15 0.63,-0.33 0.78,-0.36c0.24,-0.09 0.27,-0.09 0.75,-0.09c2.01,0 4.02,0.93 5.28,2.4c0.9,1.11 1.38,2.4 1.38,3.84c0,1.5 -0.3,2.88 -0.84,3.96c-0.78,1.59 -2.19,2.64 -4.17,3.15c-1.05,0.24 -2.67,0.36 -3.51,0.27c-1.83,-0.27 -3.3,-1.44 -3.81,-3.09c-0.18,-0.54 -0.21,-1.29 -0.09,-1.74c0.15,-0.6 0.63,-1.2 1.23,-1.47c0.36,-0.18 0.57,-0.21 0.99,-0.21c0.42,0 0.63,0.03 1.02,0.21c0.42,0.21 0.84,0.63 1.05,1.05c0.18,0.36 0.21,0.6 0.21,0.96c0,0.3 0,0.36 -0.06,0.51c-0.12,0.24 -0.27,0.42 -0.69,0.72c-0.57,0.42 -0.69,0.63 -0.69,1.08c0,0.24 0,0.3 0.06,0.45c0.12,0.21 0.3,0.39 0.57,0.54c0.42,0.18 0.87,0.21 1.53,0.15c1.08,-0.15 1.8,-0.57 2.34,-1.32c0.54,-0.75 0.84,-1.83 0.99,-3.51c0.06,-0.57 0.06,-3.03 0,-3.57c-0.12,-1.47 -0.42,-2.31 -0.99,-2.88c-0.27,-0.27 -0.63,-0.48 -1.08,-0.6c-0.27,-0.06 -0.39,-0.06 -0.84,-0.06c-0.45,0 -0.57,0 -0.78,0.06c-1.14,0.27 -2.01,1.17 -2.46,2.49c-0.21,0.57 -0.3,0.99 -0.33,1.65c-0.03,0.51 -0.06,0.57 -0.24,0.66c-0.12,0.06 -0.27,0.06 -0.39,0c-0.21,-0.09 -0.21,-0.15 -0.24,-0.75c-0.09,-1.92 -0.78,-3.72 -2.01,-5.19c-0.18,-0.21 -0.36,-0.42 -0.39,-0.45l-0.09,-0.06l0,7.11l0,7.14l-0.06,0.09c-0.09,0.06 -0.09,0.06 -0.54,0.06c-0.48,0 -0.48,0 -0.57,-0.06l-0.06,-0.09l0,-14.82l0,-14.85l0.06,-0.09z" fill="#000000"/>
  <rect id="svg_11" stroke-opacity="0" fill-opacity="0" stroke="#000000" fill="#000000" r="0" height="31" width="25.31" y="49.857" x="15"/>
  <path id="svg_12" d="m56.4,22.557c0.36,-0.03 1.2,0 1.53,0.06c1.17,0.24 1.89,0.84 2.16,1.83c0.06,0.18 0.06,0.3 0.06,0.66c0,0.45 0,0.63 -0.15,1.08c-0.66,2.04 -3.06,3.93 -5.52,4.38c-0.54,0.09 -1.44,0.09 -1.83,0.03c-1.23,-0.27 -1.98,-0.87 -2.25,-1.86c-0.06,-0.18 -0.06,-0.3 -0.06,-0.66c0,-0.45 0,-0.63 0.15,-1.08c0.24,-0.78 0.75,-1.53 1.44,-2.22c1.2,-1.2 2.85,-2.01 4.47,-2.22zm-6.09,42.8l0,-37.45833l1,0l0,37.45833l-1,0z" fill="#000000"/>
  <rect id="svg_13" stroke-opacity="0" fill-opacity="0" stroke="#000000" fill="#000000" r="0" height="42.797" width="9.81" y="22.56" x="50.31"/>
 </g>
</svg>