<svg width="105" height="104.185" xmlns="http://www.w3.org/2000/svg" preserveAspectRatio="xMidYMid meet" version="1.1">
 <desc>Created with Raphaël 2.1.2</desc>

 <g>
  <title>Layer 1</title>
  <path id="svg_1" d="m15,53.21l77.57941,0l0,0.7l-77.57941,0l0,-0.7z" fill="#000000"/>
  <path id="svg_2" d="m15,45.46l77.57941,0l0,0.7l-77.57941,0l0,-0.7z" fill="#000000"/>
  <path id="svg_3" d="m15,37.71l77.57941,0l0,0.7l-77.57941,0l0,-0.7z" fill="#000000"/>
  <path id="svg_4" d="m15,29.96l77.57941,0l0,0.7l-77.57941,0l0,-0.7z" fill="#000000"/>
  <path id="svg_5" d="m15,22.21l77.57941,0l0,0.7l-77.57941,0l0,-0.7z" fill="#000000"/>
  <path id="svg_6" data-vertical="23" fill-opacity="0" d="m0,22.65l100,0l0,0.7l-100,0l0,-0.7z" fill="#000000"/>
  <path id="svg_7" d="m26.3,22.51c0.36,-0.03 1.65,0 2.13,0.03c3.6,0.42 6.03,2.1 6.93,4.86c0.27,0.84 0.36,1.5 0.36,2.58c0,0.9 -0.03,1.35 -0.18,2.16c-0.78,3.78 -3.54,7.08 -8.37,9.96c-1.74,1.05 -3.87,2.13 -6.18,3.12c-0.39,0.18 -0.75,0.33 -0.81,0.36c-0.06,0.03 -0.15,0.06 -0.18,0.06c-0.15,0 -0.33,-0.18 -0.33,-0.33c0,-0.15 0.06,-0.21 0.51,-0.48c3,-1.77 5.13,-3.21 6.84,-4.74c0.51,-0.45 1.59,-1.5 1.95,-1.95c1.89,-2.19 2.88,-4.32 3.15,-6.78c0.06,-0.42 0.06,-1.77 0,-2.19c-0.24,-2.01 -0.93,-3.63 -2.04,-4.71c-0.63,-0.63 -1.29,-1.02 -2.07,-1.2c-1.62,-0.39 -3.36,0.15 -4.56,1.44c-0.54,0.6 -1.05,1.47 -1.32,2.22l-0.09,0.21l0.24,-0.12c0.39,-0.21 0.63,-0.24 1.11,-0.24c0.3,0 0.45,0 0.66,0.06c1.92,0.48 2.85,2.55 1.95,4.38c-0.45,0.99 -1.41,1.62 -2.46,1.71c-1.47,0.09 -2.91,-0.87 -3.39,-2.25c-0.18,-0.57 -0.21,-1.32 -0.03,-2.28c0.39,-2.25 1.83,-4.2 3.81,-5.19c0.69,-0.36 1.59,-0.6 2.37,-0.69zm11.58,2.52c0.84,-0.21 1.71,0.3 1.89,1.14c0.3,1.17 -0.72,2.19 -1.89,1.89c-0.99,-0.21 -1.5,-1.32 -1.02,-2.25c0.18,-0.39 0.6,-0.69 1.02,-0.78zm0,7.5c0.84,-0.21 1.71,0.3 1.89,1.14c0.21,0.87 -0.3,1.71 -1.14,1.89c-0.87,0.21 -1.71,-0.3 -1.89,-1.14c-0.21,-0.84 0.3,-1.71 1.14,-1.89z" fill="#000000"/>
  <rect id="svg_8" stroke-opacity="0" fill-opacity="0" stroke="#000000" fill="#000000" r="0" height="31" width="25.153" y="22.56" x="15"/>
  <path id="svg_9" d="m56.243,34.01c0.36,-0.03 1.2,0 1.53,0.06c1.17,0.24 1.89,0.84 2.16,1.83c0.06,0.18 0.06,0.3 0.06,0.66c0,0.45 0,0.63 -0.15,1.08c-0.66,2.04 -3.06,3.93 -5.52,4.38c-0.54,0.09 -1.44,0.09 -1.83,0.03c-1.23,-0.27 -1.98,-0.87 -2.25,-1.86c-0.06,-0.18 -0.06,-0.3 -0.06,-0.66c0,-0.45 0,-0.63 0.15,-1.08c0.24,-0.78 0.75,-1.53 1.44,-2.22c1.2,-1.2 2.85,-2.01 4.47,-2.22zm-6.09,31.175l0,-27.125l1,0l0,27.125l-1,0z" fill="#000000"/>
  <rect id="svg_10" stroke-opacity="0" fill-opacity="0" stroke="#000000" fill="#000000" r="0" height="31.172" width="9.81" y="34.013" x="50.153"/>
 </g>
</svg>